<svg xmlns="http://www.w3.org/2000/svg" version="1.1" xmlns:xlink="http://www.w3.org/1999/xlink" xmlns:svgjs="http://svgjs.dev/svgjs" width="500" height="150" viewBox="0 0 2000 959"><g transform="matrix(1,0,0,1,-1.2121212121212466,-0.10574014314386204)"><svg viewBox="0 0 396 190" data-background-color="#ffffff" preserveAspectRatio="xMidYMid meet" height="959" width="2000" xmlns="http://www.w3.org/2000/svg" xmlns:xlink="http://www.w3.org/1999/xlink"><g id="tight-bounds" transform="matrix(1,0,0,1,0.2400000000000091,0.020949559121305583)"><svg viewBox="0 0 395.52 189.9581008817574" height="189.9581008817574" width="395.52"><g><svg viewBox="0 0 397.4975999999999 190.90789138616614" height="189.9581008817574" width="395.52"><g><rect width="397.4975999999999" height="3.8134466037851107" x="0" y="106.94839466224411" fill="#000000" opacity="1" stroke-width="0" stroke="transparent" fill-opacity="1" class="rect-yte-0" data-fill-palette-color="secondary" rx="1%" id="yte-0" data-palette-color="#b6a522"></rect></g><g transform="matrix(1,0,0,1,0.9887999999999693,120.74468577855569)"><svg viewBox="0 0 395.52 70.16320560761045" height="70.16320560761045" width="395.52"><g id="textblocktransform"><svg viewBox="0 0 395.52 70.16320560761045" height="70.16320560761045" width="395.52" id="textblock"><g><svg viewBox="0 0 395.52 42.286570903126396" height="42.286570903126396" width="395.52"><g transform="matrix(1,0,0,1,0,0)"><svg width="395.52" viewBox="1.66 -39.5 491.15 52.510000000000005" height="42.286570903126396" data-palette-color="#b6a522"><path d="M27.71-9.01L27.71-9.01Q27.71-7.15 27.17-5.71 26.64-4.27 25.71-3.21 24.78-2.15 23.51-1.43 22.24-0.71 20.79-0.27 19.34 0.17 17.75 0.37 16.16 0.56 14.6 0.56L14.6 0.56Q12.5 0.56 10.89 0.29 9.28 0.02 7.81-0.57 6.35-1.17 4.9-2.12 3.44-3.08 1.66-4.44L1.66-4.44 6.47-8.37Q7.13-7.13 8.22-6.12 9.3-5.1 10.47-4.37 11.65-3.64 12.74-3.25 13.84-2.86 14.53-2.86L14.53-2.86Q15.09-2.86 15.8-2.89 16.5-2.93 17.24-3.04 17.97-3.15 18.68-3.37 19.38-3.59 19.93-3.97 20.48-4.35 20.81-4.92 21.14-5.49 21.14-6.3L21.14-6.3Q21.14-7.13 20.72-7.75 20.29-8.37 19.6-8.84 18.92-9.3 18.04-9.62 17.16-9.94 16.27-10.18 15.38-10.42 14.55-10.61 13.72-10.79 13.11-10.96L13.11-10.96Q11.99-11.28 10.74-11.61 9.5-11.94 8.28-12.37 7.06-12.79 5.94-13.38 4.83-13.96 3.99-14.78 3.15-15.6 2.65-16.71 2.15-17.82 2.15-19.31L2.15-19.31Q2.15-22.05 3.23-23.89 4.32-25.73 6.1-26.84 7.89-27.95 10.16-28.42 12.43-28.88 14.77-28.88L14.77-28.88Q16.38-28.88 18.16-28.55 19.95-28.22 21.63-27.58 23.32-26.93 24.78-26 26.25-25.07 27.22-23.88L27.22-23.88 22.41-19.92Q21.88-21.39 21.01-22.44 20.14-23.49 19.13-24.16 18.12-24.83 17.05-25.15 15.99-25.46 15.09-25.46L15.09-25.46Q14.21-25.46 13.11-25.39 12.01-25.32 11.05-24.98 10.08-24.63 9.41-23.94 8.74-23.24 8.74-22.02L8.74-22.02Q8.74-21.14 9.14-20.52 9.55-19.9 10.21-19.45 10.86-18.99 11.71-18.69 12.55-18.38 13.43-18.15 14.31-17.92 15.14-17.75 15.97-17.58 16.63-17.38L16.63-17.38Q17.75-17.07 19.01-16.74 20.26-16.41 21.48-15.98 22.71-15.55 23.84-14.98 24.98-14.4 25.83-13.57 26.68-12.74 27.2-11.63 27.71-10.52 27.71-9.01ZM50.24-17.14L45.58 0 38.16 0 30.44-28.2 38.69-28.2 43.53-8.42 47.56-28.2 54.98-28.2 59.91-7.89 64.67-28.2 70.38-28.2 61.84 0 54.42 0 50.24-17.14ZM83.25-35.01L83.25-35.01Q83.25-34.08 82.89-33.25 82.54-32.42 81.93-31.81 81.32-31.2 80.49-30.85 79.66-30.49 78.73-30.49L78.73-30.49Q77.8-30.49 76.98-30.85 76.17-31.2 75.56-31.81 74.95-32.42 74.59-33.25 74.24-34.08 74.24-35.01L74.24-35.01Q74.24-35.94 74.59-36.76 74.95-37.57 75.56-38.18 76.17-38.79 76.98-39.15 77.8-39.5 78.73-39.5L78.73-39.5Q79.66-39.5 80.49-39.15 81.32-38.79 81.93-38.18 82.54-37.57 82.89-36.76 83.25-35.94 83.25-35.01ZM82.88-28.17L82.88 0 74.6 0 74.6-28.17 82.88-28.17ZM133.42-16.46L133.42-16.46Q133.42-13.55 132.73-10.4 132.05-7.25 130.82-4.26 129.58-1.27 127.85 1.39 126.12 4.05 123.99 6.01L123.99 6.01 120.89 4.32Q121.6 3.05 122.18 1.46 122.77-0.12 123.26-1.88 123.75-3.64 124.11-5.49 124.48-7.35 124.74-9.19 124.99-11.04 125.11-12.77 125.24-14.5 125.24-16.02L125.24-16.02Q125.24-16.87 125.19-17.87 125.14-18.87 124.98-19.87 124.82-20.87 124.5-21.79 124.19-22.71 123.64-23.43 123.09-24.15 122.27-24.57 121.45-25 120.31-25L120.31-25Q119.18-25 118.39-24.4 117.6-23.8 117.03-22.85 116.47-21.9 116.14-20.7 115.81-19.51 115.64-18.3 115.47-17.09 115.41-15.99 115.35-14.89 115.35-14.14L115.35-14.14 115.35 0 107.12 0 107.12-13.13Q107.12-13.99 107.15-15.2 107.17-16.41 107.08-17.72 107-19.04 106.77-20.35 106.54-21.66 106.03-22.68 105.53-23.71 104.68-24.35 103.83-25 102.53-25L102.53-25Q101.43-25 100.69-24.39 99.94-23.78 99.44-22.81 98.94-21.85 98.66-20.64 98.38-19.43 98.25-18.23 98.11-17.02 98.09-15.93 98.06-14.84 98.06-14.14L98.06-14.14 98.06 0 89.79 0 89.79-28.2 92.96-28.2 95.99-21.63Q97.01-25.05 99.22-26.97 101.43-28.88 105.1-28.88L105.1-28.88Q108.39-28.88 110.56-27.51 112.74-26.15 113.98-23.07L113.98-23.07Q114.69-24.41 115.56-25.49 116.42-26.56 117.49-27.32 118.55-28.08 119.84-28.48 121.14-28.88 122.7-28.88L122.7-28.88Q125.58-28.88 127.62-27.94 129.66-27 130.95-25.34 132.24-23.68 132.83-21.4 133.42-19.12 133.42-16.46ZM163.17-9.01L163.17-9.01Q163.17-7.15 162.64-5.71 162.1-4.27 161.17-3.21 160.24-2.15 158.97-1.43 157.7-0.71 156.25-0.27 154.8 0.17 153.21 0.37 151.63 0.56 150.06 0.56L150.06 0.56Q147.96 0.56 146.35 0.29 144.74 0.02 143.28-0.57 141.81-1.17 140.36-2.12 138.91-3.08 137.12-4.44L137.12-4.44 141.93-8.37Q142.59-7.13 143.68-6.12 144.77-5.1 145.94-4.37 147.11-3.64 148.21-3.25 149.31-2.86 149.99-2.86L149.99-2.86Q150.55-2.86 151.26-2.89 151.97-2.93 152.7-3.04 153.43-3.15 154.14-3.37 154.85-3.59 155.4-3.97 155.95-4.35 156.28-4.92 156.61-5.49 156.61-6.3L156.61-6.3Q156.61-7.13 156.18-7.75 155.75-8.37 155.07-8.84 154.38-9.3 153.51-9.62 152.63-9.94 151.74-10.18 150.84-10.42 150.01-10.61 149.18-10.79 148.57-10.96L148.57-10.96Q147.45-11.28 146.21-11.61 144.96-11.94 143.74-12.37 142.52-12.79 141.41-13.38 140.3-13.96 139.46-14.78 138.61-15.6 138.11-16.71 137.61-17.82 137.61-19.31L137.61-19.31Q137.61-22.05 138.7-23.89 139.78-25.73 141.57-26.84 143.35-27.95 145.62-28.42 147.89-28.88 150.23-28.88L150.23-28.88Q151.85-28.88 153.63-28.55 155.41-28.22 157.09-27.58 158.78-26.93 160.24-26 161.71-25.07 162.69-23.88L162.69-23.88 157.88-19.92Q157.34-21.39 156.47-22.44 155.61-23.49 154.59-24.16 153.58-24.83 152.52-25.15 151.45-25.46 150.55-25.46L150.55-25.46Q149.67-25.46 148.57-25.39 147.48-25.32 146.51-24.98 145.55-24.63 144.88-23.94 144.2-23.24 144.2-22.02L144.2-22.02Q144.2-21.14 144.61-20.52 145.01-19.9 145.67-19.45 146.33-18.99 147.17-18.69 148.01-18.38 148.89-18.15 149.77-17.92 150.6-17.75 151.43-17.58 152.09-17.38L152.09-17.38Q153.21-17.07 154.47-16.74 155.73-16.41 156.95-15.98 158.17-15.55 159.3-14.98 160.44-14.4 161.29-13.57 162.15-12.74 162.66-11.63 163.17-10.52 163.17-9.01ZM166.93-12.06L166.93-12.06Q166.93-13.99 167.26-16.06 167.59-18.14 168.21-20.21 168.84-22.29 169.71-24.32 170.59-26.34 171.69-28.2L171.69-28.2 177.72-28.2Q177.11-26.37 176.64-24.38 176.16-22.39 175.83-20.4 175.5-18.41 175.32-16.5 175.13-14.6 175.13-12.96L175.13-12.96Q175.13-12.01 175.22-10.93 175.3-9.84 175.52-8.75 175.74-7.67 176.15-6.67 176.55-5.66 177.18-4.9 177.82-4.13 178.74-3.67 179.65-3.22 180.9-3.22L180.9-3.22Q182.12-3.22 183.08-3.77 184.05-4.32 184.78-5.21 185.51-6.1 186.02-7.25 186.54-8.4 186.86-9.61 187.19-10.82 187.35-11.98 187.51-13.13 187.51-14.06L187.51-14.06 187.51-28.2 195.76-28.2 195.76 0 192.59 0 188.81-6.57Q188.1-4.93 187.08-3.6 186.07-2.27 184.78-1.32 183.48-0.37 181.91 0.15 180.33 0.66 178.5 0.66L178.5 0.66Q175.57 0.66 173.4-0.29 171.23-1.25 169.79-2.93 168.35-4.61 167.64-6.95 166.93-9.28 166.93-12.06ZM211.31-35.01L211.31-35.01Q211.31-34.08 210.96-33.25 210.61-32.42 209.99-31.81 209.38-31.2 208.55-30.85 207.72-30.49 206.8-30.49L206.8-30.49Q205.87-30.49 205.05-30.85 204.23-31.2 203.62-31.81 203.01-32.42 202.66-33.25 202.3-34.08 202.3-35.01L202.3-35.01Q202.3-35.94 202.66-36.76 203.01-37.57 203.62-38.18 204.23-38.79 205.05-39.15 205.87-39.5 206.8-39.5L206.8-39.5Q207.72-39.5 208.55-39.15 209.38-38.79 209.99-38.18 210.61-37.57 210.96-36.76 211.31-35.94 211.31-35.01ZM210.95-28.17L210.95 0 202.67 0 202.67-28.17 210.95-28.17ZM228.47-24.93L228.47 0 220.2 0 220.2-24.93 215.07-24.93 215.07-28.2 220.2-28.2 220.2-38.57 228.47-38.57 228.47-28.2 237.02-28.2 237.02-24.93 228.47-24.93ZM272.61-17.14L267.95 0 260.52 0 252.81-28.2 261.06-28.2 265.9-8.42 269.92-28.2 277.35-28.2 282.28-7.89 287.04-28.2 292.75-28.2 284.21 0 276.78 0 272.61-17.14ZM303.32-13.38L303.32-13.38Q304.83-13.04 306.35-12.84 307.86-12.65 309.4-12.65L309.4-12.65Q311.01-12.65 312.39-12.95 313.77-13.26 314.78-13.98 315.8-14.7 316.38-15.89 316.97-17.09 316.97-18.87L316.97-18.87Q316.97-20.31 316.58-21.51 316.19-22.71 315.42-23.56 314.65-24.41 313.52-24.89 312.4-25.37 310.91-25.37L310.91-25.37Q309.52-25.37 308.41-24.85 307.3-24.34 306.46-23.47 305.61-22.61 305.02-21.46 304.42-20.31 304.03-19.07 303.64-17.82 303.47-16.55 303.3-15.28 303.3-14.16L303.3-14.16Q303.3-13.96 303.3-13.77 303.3-13.57 303.32-13.38ZM323.66-18.95L323.66-18.95Q323.66-17.21 323.1-15.86 322.53-14.5 321.57-13.48 320.6-12.45 319.34-11.74 318.07-11.04 316.63-10.58 315.18-10.13 313.66-9.94 312.13-9.74 310.69-9.74L310.69-9.74Q308.86-9.74 307.08-10 305.3-10.25 303.56-10.82L303.56-10.82Q303.83-9.2 304.42-7.75 305-6.3 305.98-5.21 306.96-4.13 308.39-3.49 309.81-2.86 311.77-2.86L311.77-2.86Q313.06-2.86 314.23-3.25 315.4-3.64 316.38-4.35 317.36-5.05 318.1-6.03 318.85-7.01 319.31-8.2L319.31-8.2 322.88-6.88Q322.07-4.96 320.67-3.55 319.26-2.15 317.49-1.23 315.72-0.32 313.73 0.12 311.74 0.56 309.79 0.56L309.79 0.56Q306.57 0.56 303.83-0.52 301.1-1.61 299.12-3.56 297.14-5.52 296.02-8.23 294.9-10.94 294.9-14.16L294.9-14.16Q294.9-17.38 296.02-20.09 297.14-22.8 299.12-24.76 301.1-26.71 303.83-27.8 306.57-28.88 309.79-28.88L309.79-28.88Q311.35-28.88 312.99-28.66 314.62-28.44 316.16-27.97 317.7-27.49 319.07-26.73 320.43-25.98 321.45-24.87 322.46-23.75 323.06-22.29 323.66-20.83 323.66-18.95ZM358.79-14.06L358.79-14.06Q358.79-10.99 357.86-8.3 356.93-5.62 355.17-3.63 353.41-1.64 350.88-0.49 348.34 0.66 345.11 0.66L345.11 0.66Q343.48 0.66 342 0.17 340.52-0.32 339.29-1.21 338.06-2.1 337.12-3.34 336.18-4.59 335.64-6.13L335.64-6.13 331.98 0 328.81 0 328.81-38.57 337.06-38.57 337.06-24.83Q338.52-26.86 340.59-27.81 342.65-28.76 345.11-28.76L345.11-28.76Q348.34-28.76 350.88-27.61 353.41-26.46 355.17-24.49 356.93-22.51 357.86-19.82 358.79-17.14 358.79-14.06ZM350.41-14.06L350.41-14.06Q350.41-15.14 350.3-16.35 350.19-17.55 349.92-18.75 349.66-19.95 349.18-21.04 348.7-22.14 347.97-22.99 347.24-23.83 346.21-24.33 345.19-24.83 343.8-24.83L343.8-24.83Q342.53-24.83 341.54-24.3 340.55-23.78 339.8-22.9 339.06-22.02 338.55-20.9 338.03-19.78 337.72-18.58 337.4-17.38 337.25-16.21 337.11-15.04 337.11-14.06L337.11-14.06Q337.11-12.96 337.22-11.74 337.33-10.52 337.59-9.31 337.86-8.11 338.34-7.02 338.82-5.93 339.56-5.09 340.3-4.25 341.34-3.76 342.38-3.27 343.8-3.27L343.8-3.27Q345.16-3.27 346.2-3.77 347.24-4.27 347.97-5.11 348.7-5.96 349.18-7.07 349.66-8.18 349.92-9.38 350.19-10.57 350.3-11.78 350.41-12.99 350.41-14.06ZM388.37-9.01L388.37-9.01Q388.37-7.15 387.84-5.71 387.3-4.27 386.37-3.21 385.44-2.15 384.17-1.43 382.9-0.71 381.45-0.27 380 0.17 378.41 0.37 376.83 0.56 375.26 0.56L375.26 0.56Q373.16 0.56 371.55 0.29 369.94 0.02 368.48-0.57 367.01-1.17 365.56-2.12 364.11-3.08 362.32-4.44L362.32-4.44 367.13-8.37Q367.79-7.13 368.88-6.12 369.97-5.1 371.14-4.37 372.31-3.64 373.41-3.25 374.51-2.86 375.19-2.86L375.19-2.86Q375.75-2.86 376.46-2.89 377.17-2.93 377.9-3.04 378.63-3.15 379.34-3.37 380.05-3.59 380.6-3.97 381.15-4.35 381.48-4.92 381.81-5.49 381.81-6.3L381.81-6.3Q381.81-7.13 381.38-7.75 380.95-8.37 380.27-8.84 379.58-9.3 378.71-9.62 377.83-9.94 376.94-10.18 376.04-10.42 375.21-10.61 374.38-10.79 373.77-10.96L373.77-10.96Q372.65-11.28 371.41-11.61 370.16-11.94 368.94-12.37 367.72-12.79 366.61-13.38 365.5-13.96 364.66-14.78 363.81-15.6 363.31-16.71 362.81-17.82 362.81-19.31L362.81-19.31Q362.81-22.05 363.9-23.89 364.98-25.73 366.77-26.84 368.55-27.95 370.82-28.42 373.09-28.88 375.43-28.88L375.43-28.88Q377.05-28.88 378.83-28.55 380.61-28.22 382.29-27.58 383.98-26.93 385.44-26 386.91-25.07 387.89-23.88L387.89-23.88 383.08-19.92Q382.54-21.39 381.67-22.44 380.8-23.49 379.79-24.16 378.78-24.83 377.72-25.15 376.65-25.46 375.75-25.46L375.75-25.46Q374.87-25.46 373.77-25.39 372.68-25.32 371.71-24.98 370.75-24.63 370.07-23.94 369.4-23.24 369.4-22.02L369.4-22.02Q369.4-21.14 369.81-20.52 370.21-19.9 370.87-19.45 371.53-18.99 372.37-18.69 373.21-18.38 374.09-18.15 374.97-17.92 375.8-17.75 376.63-17.58 377.29-17.38L377.29-17.38Q378.41-17.07 379.67-16.74 380.93-16.41 382.15-15.98 383.37-15.55 384.5-14.98 385.64-14.4 386.49-13.57 387.35-12.74 387.86-11.63 388.37-10.52 388.37-9.01ZM422.4-16.16L422.4-16.16Q422.4-13.31 421.71-10.21 421.01-7.1 419.77-4.13 418.52-1.15 416.79 1.48 415.06 4.1 412.98 6.01L412.98 6.01 409.88 4.32Q410.54 3.1 411.12 1.59 411.71 0.07 412.19-1.62 412.66-3.32 413.04-5.13 413.42-6.93 413.68-8.7 413.93-10.47 414.07-12.15 414.2-13.82 414.2-15.26L414.2-15.26Q414.2-16.21 414.13-17.3 414.05-18.38 413.82-19.47 413.59-20.56 413.2-21.56 412.81-22.56 412.16-23.32 411.52-24.07 410.6-24.54 409.68-25 408.44-25L408.44-25Q407.22-25 406.27-24.45 405.31-23.9 404.58-23.01 403.85-22.12 403.32-20.97 402.8-19.82 402.47-18.62 402.14-17.41 401.99-16.24 401.85-15.06 401.85-14.14L401.85-14.14 401.85 0 393.57 0 393.57-38.57 401.82-38.57 401.82-24.05Q403.41-26.37 405.72-27.62 408.02-28.88 410.83-28.88L410.83-28.88Q413.76-28.88 415.93-27.93 418.11-26.98 419.55-25.28 420.99-23.58 421.7-21.25 422.4-18.92 422.4-16.16ZM457.63-14.16L457.63-14.16Q457.63-11.96 457.05-10.03 456.46-8.11 455.42-6.47 454.38-4.83 452.92-3.53 451.45-2.22 449.71-1.32 447.96-0.42 445.97 0.07 443.98 0.56 441.88 0.56L441.88 0.56Q439.78 0.56 437.81 0.07 435.83-0.42 434.08-1.32 432.34-2.22 430.87-3.53 429.41-4.83 428.37-6.47 427.33-8.11 426.75-10.05 426.16-11.99 426.16-14.16L426.16-14.16Q426.16-16.33 426.75-18.27 427.33-20.21 428.37-21.85 429.41-23.49 430.87-24.79 432.34-26.1 434.08-27 435.83-27.91 437.81-28.39 439.78-28.88 441.88-28.88L441.88-28.88Q443.98-28.88 445.97-28.39 447.96-27.91 449.71-27 451.45-26.1 452.92-24.79 454.38-23.49 455.42-21.85 456.46-20.21 457.05-18.27 457.63-16.33 457.63-14.16ZM449.23-14.16L449.23-14.16Q449.23-15.33 449.1-16.64 448.96-17.94 448.65-19.2 448.33-20.46 447.78-21.62 447.23-22.78 446.42-23.65 445.62-24.51 444.5-25.04 443.37-25.56 441.88-25.56L441.88-25.56Q440.47-25.56 439.37-25.02 438.27-24.49 437.45-23.6 436.63-22.71 436.09-21.53 435.54-20.36 435.19-19.1 434.85-17.85 434.71-16.56 434.56-15.28 434.56-14.16L434.56-14.16Q434.56-13.04 434.71-11.76 434.85-10.47 435.19-9.2 435.54-7.93 436.09-6.77 436.63-5.62 437.45-4.72 438.27-3.83 439.37-3.3 440.47-2.76 441.88-2.76L441.88-2.76Q443.35-2.76 444.47-3.28 445.59-3.81 446.41-4.69 447.23-5.57 447.77-6.71 448.3-7.86 448.63-9.13 448.96-10.4 449.1-11.69 449.23-12.99 449.23-14.16ZM492.81-14.16L492.81-14.16Q492.81-11.08 491.88-8.4 490.95-5.71 489.2-3.72 487.44-1.73 484.9-0.59 482.36 0.56 479.14 0.56L479.14 0.56Q476.67 0.56 474.61-0.4 472.55-1.37 471.08-3.37L471.08-3.37 471.08 13.01 462.83 13.01 462.83-28.2 466-28.2 469.66-22.07Q470.2-23.61 471.14-24.87 472.08-26.12 473.31-27.01 474.55-27.91 476.02-28.39 477.5-28.88 479.14-28.88L479.14-28.88Q482.36-28.88 484.9-27.73 487.44-26.59 489.2-24.6 490.95-22.61 491.88-19.92 492.81-17.24 492.81-14.16ZM484.44-14.16L484.44-14.16Q484.44-15.23 484.33-16.44 484.22-17.65 483.95-18.85 483.68-20.04 483.2-21.14 482.73-22.24 481.99-23.08 481.26-23.93 480.22-24.43 479.19-24.93 477.82-24.93L477.82-24.93Q476.4-24.93 475.37-24.44 474.33-23.95 473.58-23.11 472.84-22.27 472.36-21.18 471.89-20.09 471.62-18.9 471.35-17.7 471.24-16.48 471.13-15.26 471.13-14.16L471.13-14.16Q471.13-13.18 471.28-12 471.42-10.82 471.74-9.62 472.06-8.42 472.57-7.3 473.08-6.18 473.83-5.3 474.57-4.42 475.56-3.89 476.55-3.37 477.82-3.37L477.82-3.37Q479.21-3.37 480.24-3.87 481.26-4.37 481.99-5.21 482.73-6.05 483.2-7.15 483.68-8.25 483.95-9.45 484.22-10.64 484.33-11.87 484.44-13.09 484.44-14.16Z" opacity="1" transform="matrix(1,0,0,1,0,0)" fill="#000000" class="wordmark-text-0" data-fill-palette-color="primary" id="text-0"></path></svg></g></svg></g><g transform="matrix(1,0,0,1,75.54432,52.269415415652865)"><svg viewBox="0 0 244.43135999999998 17.893790191957585" height="17.893790191957585" width="244.43135999999998"><g transform="matrix(1,0,0,1,0,0)"><svg width="244.43135999999998" viewBox="1.66 -42.94 764.32 55.949999999999996" height="17.893790191957585" data-palette-color="#b6a522"><path d="M27.71-9.01L27.71-9.01Q27.71-7.15 27.17-5.71 26.64-4.27 25.71-3.21 24.78-2.15 23.51-1.43 22.24-0.71 20.79-0.27 19.34 0.17 17.75 0.37 16.16 0.56 14.6 0.56L14.6 0.56Q12.5 0.56 10.89 0.29 9.28 0.02 7.81-0.57 6.35-1.17 4.9-2.12 3.44-3.08 1.66-4.44L1.66-4.44 6.47-8.37Q7.13-7.13 8.22-6.12 9.3-5.1 10.47-4.37 11.65-3.64 12.74-3.25 13.84-2.86 14.53-2.86L14.53-2.86Q15.09-2.86 15.8-2.89 16.5-2.93 17.24-3.04 17.97-3.15 18.68-3.37 19.38-3.59 19.93-3.97 20.48-4.35 20.81-4.92 21.14-5.49 21.14-6.3L21.14-6.3Q21.14-7.13 20.72-7.75 20.29-8.37 19.6-8.84 18.92-9.3 18.04-9.62 17.16-9.94 16.27-10.18 15.38-10.42 14.55-10.61 13.72-10.79 13.11-10.96L13.11-10.96Q11.99-11.28 10.74-11.61 9.5-11.94 8.28-12.37 7.06-12.79 5.94-13.38 4.83-13.96 3.99-14.78 3.15-15.6 2.65-16.71 2.15-17.82 2.15-19.31L2.15-19.31Q2.15-22.05 3.23-23.89 4.32-25.73 6.1-26.84 7.89-27.95 10.16-28.42 12.43-28.88 14.77-28.88L14.77-28.88Q16.38-28.88 18.16-28.55 19.95-28.22 21.63-27.58 23.32-26.93 24.78-26 26.25-25.07 27.22-23.88L27.22-23.88 22.41-19.92Q21.88-21.39 21.01-22.44 20.14-23.49 19.13-24.16 18.12-24.83 17.05-25.15 15.99-25.46 15.09-25.46L15.09-25.46Q14.21-25.46 13.11-25.39 12.01-25.32 11.05-24.98 10.08-24.63 9.41-23.94 8.74-23.24 8.74-22.02L8.74-22.02Q8.74-21.14 9.14-20.52 9.55-19.9 10.21-19.45 10.86-18.99 11.71-18.69 12.55-18.38 13.43-18.15 14.31-17.92 15.14-17.75 15.97-17.58 16.63-17.38L16.63-17.38Q17.75-17.07 19.01-16.74 20.26-16.41 21.48-15.98 22.71-15.55 23.84-14.98 24.98-14.4 25.83-13.57 26.68-12.74 27.2-11.63 27.71-10.52 27.71-9.01ZM39.69-13.38L39.69-13.38Q41.21-13.04 42.72-12.84 44.24-12.65 45.77-12.65L45.77-12.65Q47.39-12.65 48.76-12.95 50.14-13.26 51.16-13.98 52.17-14.7 52.76-15.89 53.34-17.09 53.34-18.87L53.34-18.87Q53.34-20.31 52.95-21.51 52.56-22.71 51.79-23.56 51.02-24.41 49.9-24.89 48.78-25.37 47.29-25.37L47.29-25.37Q45.9-25.37 44.79-24.85 43.67-24.34 42.83-23.47 41.99-22.61 41.39-21.46 40.79-20.31 40.4-19.07 40.01-17.82 39.84-16.55 39.67-15.28 39.67-14.16L39.67-14.16Q39.67-13.96 39.67-13.77 39.67-13.57 39.69-13.38ZM60.03-18.95L60.03-18.95Q60.03-17.21 59.47-15.86 58.91-14.5 57.94-13.48 56.98-12.45 55.71-11.74 54.44-11.04 53-10.58 51.56-10.13 50.03-9.94 48.51-9.74 47.07-9.74L47.07-9.74Q45.24-9.74 43.45-10 41.67-10.25 39.94-10.82L39.94-10.82Q40.21-9.2 40.79-7.75 41.38-6.3 42.36-5.21 43.33-4.13 44.76-3.49 46.19-2.86 48.14-2.86L48.14-2.86Q49.44-2.86 50.61-3.25 51.78-3.64 52.76-4.35 53.73-5.05 54.48-6.03 55.22-7.01 55.69-8.2L55.69-8.2 59.25-6.88Q58.44-4.96 57.04-3.55 55.64-2.15 53.87-1.23 52.1-0.32 50.11 0.12 48.12 0.56 46.16 0.56L46.16 0.56Q42.94 0.56 40.21-0.52 37.47-1.61 35.5-3.56 33.52-5.52 32.39-8.23 31.27-10.94 31.27-14.16L31.27-14.16Q31.27-17.38 32.39-20.09 33.52-22.8 35.5-24.76 37.47-26.71 40.21-27.8 42.94-28.88 46.16-28.88L46.16-28.88Q47.73-28.88 49.36-28.66 51-28.44 52.54-27.97 54.07-27.49 55.44-26.73 56.81-25.98 57.82-24.87 58.84-23.75 59.43-22.29 60.03-20.83 60.03-18.95ZM78.34-15.55L89.18 0 80.93 0 74.02-9.89 66.96 0 61.25 0 71.87-12.99 61.25-28.2 69.5-28.2 76.19-18.63 83.47-28.2 89.18-28.2 78.34-15.55ZM112.52-28.2L118.23-28.2 107.98-3.39Q106.22 0.85 104.06 5.02 101.9 9.18 99.38 13.01L99.38 13.01 96.16 11.06Q96.77 9.96 97.6 8.52 98.43 7.08 99.24 5.54 100.04 4 100.72 2.5 101.41 1 101.77-0.24L101.77-0.24 89.45-28.2 97.7-28.2 106.07-9.13 112.52-28.2ZM160.09-9.01L160.09-9.01Q160.09-7.15 159.56-5.71 159.02-4.27 158.09-3.21 157.17-2.15 155.9-1.43 154.63-0.71 153.17-0.27 151.72 0.17 150.13 0.37 148.55 0.56 146.98 0.56L146.98 0.56Q144.88 0.56 143.27 0.29 141.66 0.02 140.2-0.57 138.73-1.17 137.28-2.12 135.83-3.08 134.05-4.44L134.05-4.44 138.85-8.37Q139.51-7.13 140.6-6.12 141.69-5.1 142.86-4.37 144.03-3.64 145.13-3.25 146.23-2.86 146.91-2.86L146.91-2.86Q147.47-2.86 148.18-2.89 148.89-2.93 149.62-3.04 150.35-3.15 151.06-3.37 151.77-3.59 152.32-3.97 152.87-4.35 153.2-4.92 153.53-5.49 153.53-6.3L153.53-6.3Q153.53-7.13 153.1-7.75 152.67-8.37 151.99-8.84 151.31-9.3 150.43-9.62 149.55-9.94 148.66-10.18 147.77-10.42 146.94-10.61 146.11-10.79 145.5-10.96L145.5-10.96Q144.37-11.28 143.13-11.61 141.88-11.94 140.66-12.37 139.44-12.79 138.33-13.38 137.22-13.96 136.38-14.78 135.53-15.6 135.03-16.71 134.53-17.82 134.53-19.31L134.53-19.31Q134.53-22.05 135.62-23.89 136.71-25.73 138.49-26.84 140.27-27.95 142.54-28.42 144.81-28.88 147.16-28.88L147.16-28.88Q148.77-28.88 150.55-28.55 152.33-28.22 154.02-27.58 155.7-26.93 157.17-26 158.63-25.07 159.61-23.88L159.61-23.88 154.8-19.92Q154.26-21.39 153.39-22.44 152.53-23.49 151.51-24.16 150.5-24.83 149.44-25.15 148.38-25.46 147.47-25.46L147.47-25.46Q146.59-25.46 145.5-25.39 144.4-25.32 143.43-24.98 142.47-24.63 141.8-23.94 141.13-23.24 141.13-22.02L141.13-22.02Q141.13-21.14 141.53-20.52 141.93-19.9 142.59-19.45 143.25-18.99 144.09-18.69 144.93-18.38 145.81-18.15 146.69-17.92 147.52-17.75 148.35-17.58 149.01-17.38L149.01-17.38Q150.13-17.07 151.39-16.74 152.65-16.41 153.87-15.98 155.09-15.55 156.23-14.98 157.36-14.4 158.22-13.57 159.07-12.74 159.58-11.63 160.09-10.52 160.09-9.01ZM182.63-17.14L177.96 0 170.54 0 162.83-28.2 171.08-28.2 175.91-8.42 179.94-28.2 187.36-28.2 192.29-7.89 197.06-28.2 202.77-28.2 194.22 0 186.8 0 182.63-17.14ZM215.63-35.01L215.63-35.01Q215.63-34.08 215.28-33.25 214.92-32.42 214.31-31.81 213.7-31.2 212.87-30.85 212.04-30.49 211.12-30.49L211.12-30.49Q210.19-30.49 209.37-30.85 208.55-31.2 207.94-31.81 207.33-32.42 206.98-33.25 206.62-34.08 206.62-35.01L206.62-35.01Q206.62-35.94 206.98-36.76 207.33-37.57 207.94-38.18 208.55-38.79 209.37-39.15 210.19-39.5 211.12-39.5L211.12-39.5Q212.04-39.5 212.87-39.15 213.7-38.79 214.31-38.18 214.92-37.57 215.28-36.76 215.63-35.94 215.63-35.01ZM215.27-28.17L215.27 0 206.99 0 206.99-28.17 215.27-28.17ZM265.8-16.46L265.8-16.46Q265.8-13.55 265.12-10.4 264.43-7.25 263.2-4.26 261.97-1.27 260.23 1.39 258.5 4.05 256.38 6.01L256.38 6.01 253.28 4.32Q253.98 3.05 254.57 1.46 255.16-0.12 255.64-1.88 256.13-3.64 256.5-5.49 256.86-7.35 257.12-9.19 257.38-11.04 257.5-12.77 257.62-14.5 257.62-16.02L257.62-16.02Q257.62-16.87 257.57-17.87 257.52-18.87 257.37-19.87 257.21-20.87 256.89-21.79 256.57-22.71 256.02-23.43 255.47-24.15 254.66-24.57 253.84-25 252.69-25L252.69-25Q251.57-25 250.77-24.4 249.98-23.8 249.42-22.85 248.86-21.9 248.53-20.7 248.2-19.51 248.03-18.3 247.86-17.09 247.79-15.99 247.73-14.89 247.73-14.14L247.73-14.14 247.73 0 239.51 0 239.51-13.13Q239.51-13.99 239.53-15.2 239.56-16.41 239.47-17.72 239.38-19.04 239.15-20.35 238.92-21.66 238.42-22.68 237.92-23.71 237.06-24.35 236.21-25 234.92-25L234.92-25Q233.82-25 233.07-24.39 232.33-23.78 231.83-22.81 231.33-21.85 231.05-20.64 230.77-19.43 230.63-18.23 230.5-17.02 230.47-15.93 230.45-14.84 230.45-14.14L230.45-14.14 230.45 0 222.17 0 222.17-28.2 225.35-28.2 228.37-21.63Q229.4-25.05 231.61-26.97 233.82-28.88 237.48-28.88L237.48-28.88Q240.78-28.88 242.95-27.51 245.12-26.15 246.37-23.07L246.37-23.07Q247.07-24.41 247.94-25.49 248.81-26.56 249.87-27.32 250.93-28.08 252.23-28.48 253.52-28.88 255.08-28.88L255.08-28.88Q257.96-28.88 260-27.94 262.04-27 263.33-25.34 264.63-23.68 265.21-21.4 265.8-19.12 265.8-16.46ZM295.56-9.01L295.56-9.01Q295.56-7.15 295.02-5.71 294.48-4.27 293.56-3.21 292.63-2.15 291.36-1.43 290.09-0.71 288.64-0.27 287.18 0.17 285.6 0.37 284.01 0.56 282.45 0.56L282.45 0.56Q280.35 0.56 278.74 0.29 277.13 0.02 275.66-0.57 274.2-1.17 272.74-2.12 271.29-3.08 269.51-4.44L269.51-4.44 274.32-8.37Q274.98-7.13 276.06-6.12 277.15-5.1 278.32-4.37 279.49-3.64 280.59-3.25 281.69-2.86 282.37-2.86L282.37-2.86Q282.94-2.86 283.64-2.89 284.35-2.93 285.08-3.04 285.82-3.15 286.53-3.37 287.23-3.59 287.78-3.97 288.33-4.35 288.66-4.92 288.99-5.49 288.99-6.3L288.99-6.3Q288.99-7.13 288.56-7.75 288.14-8.37 287.45-8.84 286.77-9.3 285.89-9.62 285.01-9.94 284.12-10.18 283.23-10.42 282.4-10.61 281.57-10.79 280.96-10.96L280.96-10.96Q279.84-11.28 278.59-11.61 277.35-11.94 276.12-12.37 274.9-12.79 273.79-13.38 272.68-13.96 271.84-14.78 271-15.6 270.5-16.71 270-17.82 270-19.31L270-19.31Q270-22.05 271.08-23.89 272.17-25.73 273.95-26.84 275.73-27.95 278-28.42 280.28-28.88 282.62-28.88L282.62-28.88Q284.23-28.88 286.01-28.55 287.79-28.22 289.48-27.58 291.16-26.93 292.63-26 294.09-25.07 295.07-23.88L295.07-23.88 290.26-19.92Q289.72-21.39 288.86-22.44 287.99-23.49 286.98-24.16 285.96-24.83 284.9-25.15 283.84-25.46 282.94-25.46L282.94-25.46Q282.06-25.46 280.96-25.39 279.86-25.32 278.9-24.98 277.93-24.63 277.26-23.94 276.59-23.24 276.59-22.02L276.59-22.02Q276.59-21.14 276.99-20.52 277.39-19.9 278.05-19.45 278.71-18.99 279.56-18.69 280.4-18.38 281.28-18.15 282.16-17.92 282.99-17.75 283.82-17.58 284.47-17.38L284.47-17.38Q285.6-17.07 286.85-16.74 288.11-16.41 289.33-15.98 290.55-15.55 291.69-14.98 292.82-14.4 293.68-13.57 294.53-12.74 295.05-11.63 295.56-10.52 295.56-9.01ZM299.32-12.06L299.32-12.06Q299.32-13.99 299.65-16.06 299.98-18.14 300.6-20.21 301.22-22.29 302.1-24.32 302.98-26.34 304.08-28.2L304.08-28.2 310.11-28.2Q309.5-26.37 309.02-24.38 308.54-22.39 308.21-20.4 307.89-18.41 307.7-16.5 307.52-14.6 307.52-12.96L307.52-12.96Q307.52-12.01 307.6-10.93 307.69-9.84 307.91-8.75 308.13-7.67 308.53-6.67 308.93-5.66 309.57-4.9 310.2-4.13 311.12-3.67 312.04-3.22 313.28-3.22L313.28-3.22Q314.5-3.22 315.47-3.77 316.43-4.32 317.16-5.21 317.89-6.1 318.41-7.25 318.92-8.4 319.25-9.61 319.58-10.82 319.74-11.98 319.9-13.13 319.9-14.06L319.9-14.06 319.9-28.2 328.15-28.2 328.15 0 324.98 0 321.19-6.57Q320.48-4.93 319.47-3.6 318.46-2.27 317.16-1.32 315.87-0.37 314.29 0.15 312.72 0.66 310.89 0.66L310.89 0.66Q307.96 0.66 305.79-0.29 303.61-1.25 302.17-2.93 300.73-4.61 300.02-6.95 299.32-9.28 299.32-12.06ZM343.7-35.01L343.7-35.01Q343.7-34.08 343.34-33.25 342.99-32.42 342.38-31.81 341.77-31.2 340.94-30.85 340.11-30.49 339.18-30.49L339.18-30.49Q338.25-30.49 337.44-30.85 336.62-31.2 336.01-31.81 335.4-32.42 335.04-33.25 334.69-34.08 334.69-35.01L334.69-35.01Q334.69-35.94 335.04-36.76 335.4-37.57 336.01-38.18 336.62-38.79 337.44-39.15 338.25-39.5 339.18-39.5L339.18-39.5Q340.11-39.5 340.94-39.15 341.77-38.79 342.38-38.18 342.99-37.57 343.34-36.76 343.7-35.94 343.7-35.01ZM343.33-28.17L343.33 0 335.06 0 335.06-28.17 343.33-28.17ZM360.86-24.93L360.86 0 352.58 0 352.58-24.93 347.46-24.93 347.46-28.2 352.58-28.2 352.58-38.57 360.86-38.57 360.86-28.2 369.4-28.2 369.4-24.93 360.86-24.93ZM413.73-39.79L413.73-39.79 409.07-32.08Q409-33.01 408.73-34.22 408.46-35.42 407.84-36.5 407.22-37.57 406.13-38.32 405.04-39.06 403.36-39.06L403.36-39.06Q401.63-39.06 400.58-38.38 399.53-37.7 398.96-36.33 398.4-34.96 398.21-32.93 398.01-30.91 398.01-28.22L398.01-28.22 406.56-28.22 406.56-24.95 398.01-24.95 398.01 0 389.74 0 389.74-24.95 384.61-24.95 384.61-28.22 389.74-28.22Q389.74-32.1 390.57-34.89 391.4-37.67 393.08-39.47 394.76-41.26 397.32-42.1 399.87-42.94 403.29-42.94L403.29-42.94Q405.34-42.94 406.96-42.66 408.58-42.38 409.84-41.93 411.1-41.48 412.05-40.92 413-40.36 413.73-39.79ZM439.2-14.16L439.2-14.16Q439.2-11.96 438.61-10.03 438.02-8.11 436.99-6.47 435.95-4.83 434.48-3.53 433.02-2.22 431.27-1.32 429.53-0.42 427.54 0.07 425.55 0.56 423.45 0.56L423.45 0.56Q421.35 0.56 419.37 0.07 417.39-0.42 415.65-1.32 413.9-2.22 412.44-3.53 410.97-4.83 409.94-6.47 408.9-8.11 408.31-10.05 407.73-11.99 407.73-14.16L407.73-14.16Q407.73-16.33 408.31-18.27 408.9-20.21 409.94-21.85 410.97-23.49 412.44-24.79 413.9-26.1 415.65-27 417.39-27.91 419.37-28.39 421.35-28.88 423.45-28.88L423.45-28.88Q425.55-28.88 427.54-28.39 429.53-27.91 431.27-27 433.02-26.1 434.48-24.79 435.95-23.49 436.99-21.85 438.02-20.21 438.61-18.27 439.2-16.33 439.2-14.16ZM430.8-14.16L430.8-14.16Q430.8-15.33 430.66-16.64 430.53-17.94 430.21-19.2 429.89-20.46 429.34-21.62 428.8-22.78 427.99-23.65 427.18-24.51 426.06-25.04 424.94-25.56 423.45-25.56L423.45-25.56Q422.03-25.56 420.93-25.02 419.84-24.49 419.02-23.6 418.2-22.71 417.65-21.53 417.1-20.36 416.76-19.1 416.42-17.85 416.27-16.56 416.12-15.28 416.12-14.16L416.12-14.16Q416.12-13.04 416.27-11.76 416.42-10.47 416.76-9.2 417.1-7.93 417.65-6.77 418.2-5.62 419.02-4.72 419.84-3.83 420.93-3.3 422.03-2.76 423.45-2.76L423.45-2.76Q424.91-2.76 426.04-3.28 427.16-3.81 427.98-4.69 428.8-5.57 429.33-6.71 429.87-7.86 430.2-9.13 430.53-10.4 430.66-11.69 430.8-12.99 430.8-14.16ZM468.37-25.71L468.37-25.71 463.73-18.02Q463.44-18.99 462.97-20.21 462.51-21.44 461.83-22.5 461.14-23.56 460.19-24.28 459.24-25 457.99-25L457.99-25Q456.84-25 456-24.41 455.16-23.83 454.57-22.89 453.99-21.95 453.61-20.76 453.23-19.58 453.02-18.37 452.82-17.16 452.74-16.05 452.67-14.94 452.67-14.14L452.67-14.14 452.67 0 444.39 0 444.39-28.2 447.57-28.2 450.91-21.63Q451.6-23.22 452.47-24.55 453.35-25.88 454.5-26.84 455.65-27.81 457.1-28.34 458.55-28.88 460.38-28.88L460.38-28.88Q461.34-28.88 462.51-28.72 463.68-28.56 464.8-28.19 465.93-27.81 466.88-27.2 467.83-26.59 468.37-25.71ZM492.75-13.38L492.75-13.38Q494.27-13.04 495.78-12.84 497.29-12.65 498.83-12.65L498.83-12.65Q500.44-12.65 501.82-12.95 503.2-13.26 504.22-13.98 505.23-14.7 505.81-15.89 506.4-17.09 506.4-18.87L506.4-18.87Q506.4-20.31 506.01-21.51 505.62-22.71 504.85-23.56 504.08-24.41 502.96-24.89 501.83-25.37 500.35-25.37L500.35-25.37Q498.95-25.37 497.84-24.85 496.73-24.34 495.89-23.47 495.05-22.61 494.45-21.46 493.85-20.31 493.46-19.07 493.07-17.82 492.9-16.55 492.73-15.28 492.73-14.16L492.73-14.16Q492.73-13.96 492.73-13.77 492.73-13.57 492.75-13.38ZM513.09-18.95L513.09-18.95Q513.09-17.21 512.53-15.86 511.97-14.5 511-13.48 510.04-12.45 508.77-11.74 507.5-11.04 506.06-10.58 504.62-10.13 503.09-9.94 501.57-9.74 500.13-9.74L500.13-9.74Q498.29-9.74 496.51-10 494.73-10.25 493-10.82L493-10.82Q493.27-9.2 493.85-7.75 494.44-6.3 495.41-5.21 496.39-4.13 497.82-3.49 499.25-2.86 501.2-2.86L501.2-2.86Q502.49-2.86 503.67-3.25 504.84-3.64 505.81-4.35 506.79-5.05 507.54-6.03 508.28-7.01 508.74-8.2L508.74-8.2 512.31-6.88Q511.5-4.96 510.1-3.55 508.7-2.15 506.93-1.23 505.16-0.32 503.17 0.12 501.18 0.56 499.22 0.56L499.22 0.56Q496 0.56 493.27-0.52 490.53-1.61 488.55-3.56 486.58-5.52 485.45-8.23 484.33-10.94 484.33-14.16L484.33-14.16Q484.33-17.38 485.45-20.09 486.58-22.8 488.55-24.76 490.53-26.71 493.27-27.8 496-28.88 499.22-28.88L499.22-28.88Q500.79-28.88 502.42-28.66 504.06-28.44 505.59-27.97 507.13-27.49 508.5-26.73 509.87-25.98 510.88-24.87 511.89-23.75 512.49-22.29 513.09-20.83 513.09-18.95ZM543.85-28.2L532.74 0 525.32 0 515.06-28.2 523.32-28.2 530.84-5.74 538.14-28.2 543.85-28.2ZM553.56-13.38L553.56-13.38Q555.08-13.04 556.59-12.84 558.1-12.65 559.64-12.65L559.64-12.65Q561.25-12.65 562.63-12.95 564.01-13.26 565.03-13.98 566.04-14.7 566.62-15.89 567.21-17.09 567.21-18.87L567.21-18.87Q567.21-20.31 566.82-21.51 566.43-22.71 565.66-23.56 564.89-24.41 563.77-24.89 562.65-25.37 561.16-25.37L561.16-25.37Q559.76-25.37 558.65-24.85 557.54-24.34 556.7-23.47 555.86-22.61 555.26-21.46 554.66-20.31 554.27-19.07 553.88-17.82 553.71-16.55 553.54-15.28 553.54-14.16L553.54-14.16Q553.54-13.96 553.54-13.77 553.54-13.57 553.56-13.38ZM573.9-18.95L573.9-18.95Q573.9-17.21 573.34-15.86 572.78-14.5 571.81-13.48 570.85-12.45 569.58-11.74 568.31-11.04 566.87-10.58 565.43-10.13 563.9-9.94 562.38-9.74 560.94-9.74L560.94-9.74Q559.11-9.74 557.32-10 555.54-10.25 553.81-10.82L553.81-10.82Q554.08-9.2 554.66-7.75 555.25-6.3 556.22-5.21 557.2-4.13 558.63-3.49 560.06-2.86 562.01-2.86L562.01-2.86Q563.3-2.86 564.48-3.25 565.65-3.64 566.62-4.35 567.6-5.05 568.35-6.03 569.09-7.01 569.55-8.2L569.55-8.2 573.12-6.88Q572.31-4.96 570.91-3.55 569.51-2.15 567.74-1.23 565.97-0.32 563.98 0.12 561.99 0.56 560.03 0.56L560.03 0.56Q556.81 0.56 554.08-0.52 551.34-1.61 549.36-3.56 547.39-5.52 546.26-8.23 545.14-10.94 545.14-14.16L545.14-14.16Q545.14-17.38 546.26-20.09 547.39-22.8 549.36-24.76 551.34-26.71 554.08-27.8 556.81-28.88 560.03-28.88L560.03-28.88Q561.6-28.88 563.23-28.66 564.87-28.44 566.41-27.97 567.94-27.49 569.31-26.73 570.68-25.98 571.69-24.87 572.7-23.75 573.3-22.29 573.9-20.83 573.9-18.95ZM603.02-25.71L603.02-25.71 598.38-18.02Q598.09-18.99 597.63-20.21 597.16-21.44 596.48-22.5 595.8-23.56 594.84-24.28 593.89-25 592.65-25L592.65-25Q591.5-25 590.66-24.41 589.82-23.83 589.23-22.89 588.64-21.95 588.27-20.76 587.89-19.58 587.68-18.37 587.47-17.16 587.4-16.05 587.33-14.94 587.33-14.14L587.33-14.14 587.33 0 579.05 0 579.05-28.2 582.22-28.2 585.57-21.63Q586.25-23.22 587.13-24.55 588.01-25.88 589.16-26.84 590.3-27.81 591.76-28.34 593.21-28.88 595.04-28.88L595.04-28.88Q595.99-28.88 597.16-28.72 598.34-28.56 599.46-28.19 600.58-27.81 601.53-27.2 602.49-26.59 603.02-25.71ZM625.99-28.2L631.71-28.2 621.45-3.39Q619.7 0.85 617.54 5.02 615.37 9.18 612.86 13.01L612.86 13.01 609.64 11.06Q610.25 9.96 611.08 8.52 611.91 7.08 612.71 5.54 613.52 4 614.2 2.5 614.89 1 615.25-0.24L615.25-0.24 602.92-28.2 611.18-28.2 619.55-9.13 625.99-28.2ZM665.13-14.06L665.13-14.06Q665.13-10.99 664.2-8.3 663.27-5.62 661.51-3.63 659.76-1.64 657.22-0.49 654.68 0.66 651.46 0.66L651.46 0.66Q649.82 0.66 648.34 0.17 646.87-0.32 645.63-1.21 644.4-2.1 643.46-3.34 642.52-4.59 641.98-6.13L641.98-6.13 638.32 0 635.15 0 635.15-38.57 643.4-38.57 643.4-24.83Q644.86-26.86 646.93-27.81 648.99-28.76 651.46-28.76L651.46-28.76Q654.68-28.76 657.22-27.61 659.76-26.46 661.51-24.49 663.27-22.51 664.2-19.82 665.13-17.14 665.13-14.06ZM656.75-14.06L656.75-14.06Q656.75-15.14 656.64-16.35 656.53-17.55 656.27-18.75 656-19.95 655.52-21.04 655.05-22.14 654.31-22.99 653.58-23.83 652.55-24.33 651.53-24.83 650.14-24.83L650.14-24.83Q648.87-24.83 647.88-24.3 646.89-23.78 646.15-22.9 645.4-22.02 644.89-20.9 644.38-19.78 644.06-18.58 643.74-17.38 643.59-16.21 643.45-15.04 643.45-14.06L643.45-14.06Q643.45-12.96 643.56-11.74 643.67-10.52 643.94-9.31 644.21-8.11 644.68-7.02 645.16-5.93 645.9-5.09 646.65-4.25 647.68-3.76 648.72-3.27 650.14-3.27L650.14-3.27Q651.5-3.27 652.54-3.77 653.58-4.27 654.31-5.11 655.05-5.96 655.52-7.07 656-8.18 656.27-9.38 656.53-10.57 656.64-11.78 656.75-12.99 656.75-14.06ZM700.23-14.16L700.23-14.16Q700.23-11.96 699.65-10.03 699.06-8.11 698.02-6.47 696.99-4.83 695.52-3.53 694.06-2.22 692.31-1.32 690.56-0.42 688.58 0.07 686.59 0.56 684.49 0.56L684.49 0.56Q682.39 0.56 680.41 0.07 678.43-0.42 676.69-1.32 674.94-2.22 673.48-3.53 672.01-4.83 670.97-6.47 669.94-8.11 669.35-10.05 668.76-11.99 668.76-14.16L668.76-14.16Q668.76-16.33 669.35-18.27 669.94-20.21 670.97-21.85 672.01-23.49 673.48-24.79 674.94-26.1 676.69-27 678.43-27.91 680.41-28.39 682.39-28.88 684.49-28.88L684.49-28.88Q686.59-28.88 688.58-28.39 690.56-27.91 692.31-27 694.06-26.1 695.52-24.79 696.99-23.49 698.02-21.85 699.06-20.21 699.65-18.27 700.23-16.33 700.23-14.16ZM691.83-14.16L691.83-14.16Q691.83-15.33 691.7-16.64 691.57-17.94 691.25-19.2 690.93-20.46 690.38-21.62 689.83-22.78 689.03-23.65 688.22-24.51 687.1-25.04 685.98-25.56 684.49-25.56L684.49-25.56Q683.07-25.56 681.97-25.02 680.87-24.49 680.05-23.6 679.24-22.71 678.69-21.53 678.14-20.36 677.8-19.1 677.45-17.85 677.31-16.56 677.16-15.28 677.16-14.16L677.16-14.16Q677.16-13.04 677.31-11.76 677.45-10.47 677.8-9.2 678.14-7.93 678.69-6.77 679.24-5.62 680.05-4.72 680.87-3.83 681.97-3.3 683.07-2.76 684.49-2.76L684.49-2.76Q685.95-2.76 687.07-3.28 688.2-3.81 689.01-4.69 689.83-5.57 690.37-6.71 690.91-7.86 691.24-9.13 691.57-10.4 691.7-11.69 691.83-12.99 691.83-14.16ZM733.85-38.57L733.85 0 730.67 0 727.01-6.13Q726.48-4.59 725.54-3.34 724.6-2.1 723.36-1.21 722.13-0.32 720.65 0.17 719.18 0.66 717.54 0.66L717.54 0.66Q714.32 0.66 711.78-0.49 709.24-1.64 707.48-3.63 705.72-5.62 704.8-8.3 703.87-10.99 703.87-14.06L703.87-14.06Q703.87-17.14 704.8-19.82 705.72-22.51 707.48-24.49 709.24-26.46 711.78-27.61 714.32-28.76 717.54-28.76L717.54-28.76Q720.01-28.76 722.07-27.81 724.13-26.86 725.6-24.83L725.6-24.83 725.6-38.57 733.85-38.57ZM725.55-14.06L725.55-14.06Q725.55-15.04 725.4-16.21 725.25-17.38 724.94-18.58 724.62-19.78 724.11-20.9 723.59-22.02 722.85-22.9 722.11-23.78 721.12-24.3 720.13-24.83 718.86-24.83L718.86-24.83Q717.47-24.83 716.44-24.33 715.42-23.83 714.68-22.99 713.95-22.14 713.48-21.04 713-19.95 712.73-18.75 712.46-17.55 712.35-16.35 712.24-15.14 712.24-14.06L712.24-14.06Q712.24-12.99 712.35-11.78 712.46-10.57 712.73-9.38 713-8.18 713.48-7.07 713.95-5.96 714.68-5.11 715.42-4.27 716.44-3.77 717.47-3.27 718.86-3.27L718.86-3.27Q720.25-3.27 721.3-3.76 722.35-4.25 723.09-5.09 723.84-5.93 724.31-7.02 724.79-8.11 725.06-9.31 725.33-10.52 725.44-11.74 725.55-12.96 725.55-14.06ZM760.26-28.2L765.98-28.2 755.72-3.39Q753.96 0.85 751.8 5.02 749.64 9.18 747.13 13.01L747.13 13.01 743.9 11.06Q744.52 9.96 745.35 8.52 746.18 7.08 746.98 5.54 747.79 4 748.47 2.5 749.15 1 749.52-0.24L749.52-0.24 737.19-28.2 745.44-28.2 753.82-9.13 760.26-28.2Z" opacity="1" transform="matrix(1,0,0,1,0,0)" fill="#000000" class="slogan-text-1" data-fill-palette-color="secondary" id="text-1"></path></svg></g></svg></g></svg></g></svg></g><g transform="matrix(1,0,0,1,166.36564996235165,0)"><svg viewBox="0 0 64.7663000752966 96.96555014971764" height="96.96555014971764" width="64.7663000752966"><g><svg xmlns="http://www.w3.org/2000/svg" xmlns:xlink="http://www.w3.org/1999/xlink" version="1.1" x="8" y="0" viewBox="28.5 8.393 43 85.5" enable-background="new 0 0 100 100" xml:space="preserve" height="96.96555014971764" width="48.7663000752966" class="icon-icon-0" data-fill-palette-color="accent" id="icon-0"><g fill="#c1c7d7" data-fill-palette-color="accent"><path d="M28.5 76.393S42.833 83.561 46.833 93.893H52.666S61.834 79.561 71.5 76.393C71.5 76.393 69.833 67.227 67.833 61.893 67.833 61.893 66.166 54.727 68.666 44.726 68.666 44.726 71.332 35.393 68.666 22.393 68.666 22.393 67.334 15.393 69 9.226L65.666 8.393S63.832 9.393 63.666 19.56C63.666 19.56 64 21.893 62.333 23.06 62.333 23.06 51.333 27.393 38.833 22.893 38.833 22.893 36.333 10.06 36.5 8.393H33.167S33.501 18.226 32.834 23.06C32.834 23.06 29.334 34.727 32.501 43.893 32.501 43.893 35.834 50.226 32.668 61.892 32.667 61.893 28.834 72.893 28.5 76.393" fill="#000000" data-fill-palette-color="accent"></path></g></svg></g></svg></g><g><rect width="89.83252996235169" height="3.8134466037851107" y="92.15210354593253" x="231.13195003764827" fill="#000000" data-fill-palette-color="secondary"></rect><rect width="89.83252996235169" height="3.8134466037851107" y="92.15210354593253" x="76.53311999999997" fill="#000000" data-fill-palette-color="secondary"></rect></g></svg></g><defs></defs></svg><rect width="395.52" height="189.9581008817574" fill="none" stroke="none" visibility="hidden"></rect></g></svg></g></svg>
